<svg width="186" height="44" viewBox="0 0 186 44" fill="none" xmlns="http://www.w3.org/2000/svg">
<path d="M39.8295 35.4261C37.5852 35.4261 35.6534 34.9716 34.0341 34.0625C32.4242 33.1439 31.1837 31.8466 30.3125 30.1705C29.4413 28.4848 29.0057 26.4915 29.0057 24.1903C29.0057 21.946 29.4413 19.9763 30.3125 18.2812C31.1837 16.5862 32.41 15.2652 33.9915 14.3182C35.5824 13.3712 37.4479 12.8977 39.5881 12.8977C41.0275 12.8977 42.3674 13.1297 43.608 13.5938C44.858 14.0483 45.947 14.7348 46.875 15.6534C47.8125 16.572 48.5417 17.7273 49.0625 19.1193C49.5833 20.5019 49.8437 22.1212 49.8437 23.9773V25.6392H31.4205V21.8892H44.1477C44.1477 21.018 43.9583 20.2462 43.5795 19.5739C43.2008 18.9015 42.6752 18.3759 42.0028 17.9972C41.34 17.6089 40.5682 17.4148 39.6875 17.4148C38.7689 17.4148 37.9545 17.6278 37.2443 18.054C36.5436 18.4706 35.9943 19.0341 35.5966 19.7443C35.1989 20.4451 34.9953 21.2263 34.9858 22.0881V25.6534C34.9858 26.733 35.1847 27.6657 35.5824 28.4517C35.9896 29.2377 36.5625 29.8438 37.3011 30.2699C38.0398 30.696 38.9157 30.9091 39.929 30.9091C40.6013 30.9091 41.2169 30.8144 41.7756 30.625C42.3343 30.4356 42.8125 30.1515 43.2102 29.7727C43.608 29.3939 43.911 28.9299 44.1193 28.3807L49.7159 28.75C49.4318 30.0947 48.8494 31.2689 47.9687 32.2727C47.0975 33.267 45.9706 34.0436 44.5881 34.6023C43.215 35.1515 41.6288 35.4261 39.8295 35.4261ZM63.7358 35.4261C61.4915 35.4261 59.5597 34.9716 57.9403 34.0625C56.3305 33.1439 55.09 31.8466 54.2187 30.1705C53.3475 28.4848 52.9119 26.4915 52.9119 24.1903C52.9119 21.946 53.3475 19.9763 54.2187 18.2812C55.09 16.5862 56.3163 15.2652 57.8977 14.3182C59.4886 13.3712 61.3542 12.8977 63.4943 12.8977C64.9337 12.8977 66.2737 13.1297 67.5142 13.5938C68.7642 14.0483 69.8532 14.7348 70.7812 15.6534C71.7187 16.572 72.4479 17.7273 72.9687 19.1193C73.4896 20.5019 73.75 22.1212 73.75 23.9773V25.6392H55.3267V21.8892H68.054C68.054 21.018 67.8646 20.2462 67.4858 19.5739C67.107 18.9015 66.5814 18.3759 65.9091 17.9972C65.2462 17.6089 64.4744 17.4148 63.5937 17.4148C62.6752 17.4148 61.8608 17.6278 61.1506 18.054C60.4498 18.4706 59.9006 19.0341 59.5028 19.7443C59.1051 20.4451 58.9015 21.2263 58.892 22.0881V25.6534C58.892 26.733 59.0909 27.6657 59.4886 28.4517C59.8958 29.2377 60.4687 29.8438 61.2074 30.2699C61.946 30.696 62.822 30.9091 63.8352 30.9091C64.5076 30.9091 65.1231 30.8144 65.6818 30.625C66.2405 30.4356 66.7187 30.1515 67.1165 29.7727C67.5142 29.3939 67.8172 28.9299 68.0256 28.3807L73.6222 28.75C73.3381 30.0947 72.7557 31.2689 71.875 32.2727C71.0038 33.267 69.8769 34.0436 68.4943 34.6023C67.1212 35.1515 65.535 35.4261 63.7358 35.4261ZM77.6989 43.1818V13.1818H83.6648V16.8466H83.9347C84.1998 16.2595 84.5833 15.6629 85.0852 15.0568C85.5966 14.4413 86.2595 13.9299 87.0739 13.5227C87.8977 13.1061 88.9205 12.8977 90.142 12.8977C91.733 12.8977 93.2008 13.3144 94.5455 14.1477C95.8901 14.9716 96.965 16.2169 97.7699 17.8835C98.5748 19.5407 98.9773 21.6193 98.9773 24.1193C98.9773 26.553 98.5843 28.608 97.7983 30.2841C97.0218 31.9508 95.9612 33.215 94.6165 34.0767C93.2812 34.929 91.785 35.3551 90.1278 35.3551C88.9536 35.3551 87.9545 35.161 87.1307 34.7727C86.3163 34.3845 85.6487 33.8968 85.1278 33.3097C84.607 32.7131 84.2093 32.1117 83.9347 31.5057H83.75V43.1818H77.6989ZM83.6222 24.0909C83.6222 25.3883 83.8021 26.5199 84.1619 27.4858C84.5218 28.4517 85.0426 29.2045 85.7244 29.7443C86.4062 30.2746 87.2348 30.5398 88.2102 30.5398C89.1951 30.5398 90.0284 30.2699 90.7102 29.7301C91.392 29.1809 91.9081 28.4233 92.2585 27.4574C92.6184 26.482 92.7983 25.3598 92.7983 24.0909C92.7983 22.8314 92.6231 21.7235 92.2727 20.767C91.9223 19.8106 91.4062 19.0625 90.7244 18.5227C90.0426 17.983 89.2045 17.7131 88.2102 17.7131C87.2254 17.7131 86.392 17.9735 85.7102 18.4943C85.0379 19.0152 84.5218 19.7538 84.1619 20.7102C83.8021 21.6667 83.6222 22.7936 83.6222 24.0909Z" fill="#111111"/>
<path d="M136.58 35.4119C135.187 35.4119 133.947 35.1705 132.858 34.6875C131.769 34.1951 130.907 33.4706 130.273 32.5142C129.648 31.5483 129.335 30.3456 129.335 28.9062C129.335 27.6941 129.558 26.6761 130.003 25.8523C130.448 25.0284 131.054 24.3655 131.821 23.8636C132.588 23.3617 133.459 22.983 134.435 22.7273C135.42 22.4716 136.452 22.2917 137.531 22.1875C138.8 22.0549 139.823 21.9318 140.599 21.8182C141.376 21.6951 141.939 21.5152 142.29 21.2784C142.64 21.0417 142.815 20.6913 142.815 20.2273V20.142C142.815 19.2424 142.531 18.5464 141.963 18.054C141.404 17.5616 140.609 17.3153 139.577 17.3153C138.488 17.3153 137.621 17.5568 136.977 18.0398C136.333 18.5133 135.907 19.1098 135.699 19.8295L130.102 19.375C130.386 18.0492 130.945 16.9034 131.778 15.9375C132.612 14.9621 133.687 14.214 135.003 13.6932C136.329 13.1629 137.863 12.8977 139.605 12.8977C140.817 12.8977 141.977 13.0398 143.085 13.3239C144.203 13.608 145.192 14.0483 146.054 14.6449C146.925 15.2415 147.612 16.0085 148.114 16.946C148.616 17.8741 148.866 18.9867 148.866 20.2841V35H143.128V31.9744H142.957C142.607 32.6562 142.138 33.2576 141.551 33.7784C140.964 34.2898 140.259 34.6922 139.435 34.9858C138.611 35.2699 137.659 35.4119 136.58 35.4119ZM138.312 31.2358C139.203 31.2358 139.989 31.0606 140.67 30.7102C141.352 30.3504 141.887 29.8674 142.276 29.2614C142.664 28.6553 142.858 27.9687 142.858 27.2017V24.8864C142.669 25.0095 142.408 25.1231 142.077 25.2273C141.755 25.322 141.39 25.4119 140.983 25.4972C140.576 25.5729 140.169 25.6439 139.761 25.7102C139.354 25.767 138.985 25.8191 138.653 25.8665C137.943 25.9706 137.323 26.1364 136.793 26.3636C136.262 26.5909 135.85 26.8987 135.557 27.2869C135.263 27.6657 135.116 28.1392 135.116 28.7074C135.116 29.5312 135.415 30.161 136.011 30.5966C136.617 31.0227 137.384 31.2358 138.312 31.2358ZM153.561 35V13.1818H159.612V35H153.561ZM156.601 10.3693C155.701 10.3693 154.929 10.071 154.286 9.47443C153.651 8.86837 153.334 8.14394 153.334 7.30114C153.334 6.4678 153.651 5.75284 154.286 5.15625C154.929 4.55019 155.701 4.24716 156.601 4.24716C157.5 4.24716 158.268 4.55019 158.902 5.15625C159.546 5.75284 159.868 6.4678 159.868 7.30114C159.868 8.14394 159.546 8.86837 158.902 9.47443C158.268 10.071 157.5 10.3693 156.601 10.3693ZM184.8 13.1818L177.173 35H170.354L162.727 13.1818H169.119L173.65 28.7926H173.877L178.394 13.1818H184.8Z" fill="#111111"/>
<path fill-rule="evenodd" clip-rule="evenodd" d="M0 35H10.3125C13.267 35 15.8049 34.4176 17.9261 33.2528C20.0568 32.0881 21.6903 30.4167 22.8267 28.2386C23.9725 26.0606 24.5455 23.4564 24.5455 20.4261C24.5455 18.9813 24.4144 17.634 24.1523 16.3842C23.2385 17.3775 21.9277 18 20.4716 18C19.6376 18 18.8512 17.7958 18.1598 17.4346C18.326 18.3289 18.4091 19.326 18.4091 20.4261C18.4091 22.5947 18.0919 24.3655 17.4574 25.7386C16.8324 27.1023 15.8949 28.1108 14.6449 28.7642C13.4044 29.4081 11.875 29.7301 10.0568 29.7301H6.15057V11.179H10.071C11.8892 11.179 13.4186 11.5009 14.6591 12.1449C14.9508 12.2963 15.2254 12.4676 15.4831 12.6588C15.6226 10.5879 17.023 8.86275 18.9229 8.24445C18.6124 8.03563 18.2896 7.83956 17.9545 7.65625C15.8428 6.49147 13.3239 5.90909 10.3977 5.90909H0V35Z" fill="#111111"/>
<path fill-rule="evenodd" clip-rule="evenodd" d="M102.472 35H112.784C115.739 35 118.277 34.4176 120.398 33.2528C122.528 32.0881 124.162 30.4167 125.298 28.2386C126.444 26.0606 127.017 23.4564 127.017 20.4261C127.017 18.9813 126.886 17.634 126.624 16.3842C125.71 17.3775 124.399 18 122.943 18C122.109 18 121.323 17.7958 120.631 17.4346C120.798 18.3289 120.881 19.326 120.881 20.4261C120.881 22.5947 120.563 24.3655 119.929 25.7386C119.304 27.1023 118.366 28.1108 117.116 28.7642C115.876 29.4081 114.347 29.7301 112.528 29.7301H108.622V11.179H112.543C114.361 11.179 115.89 11.5009 117.131 12.1449C117.422 12.2963 117.697 12.4676 117.955 12.6588C118.094 10.5879 119.495 8.86275 121.395 8.24445C121.084 8.03563 120.761 7.83956 120.426 7.65625C118.314 6.49147 115.795 5.90909 112.869 5.90909H102.472V35Z" fill="#111111"/>
</svg>
